PathFileType	4	(X/Y/Z)	T1_P1_Vision_Movement_1_0-686.trc
DataRate	CameraRate	NumFrames	NumMarkers	Units	OrigDataRate	OrigDataStartFrame	OrigNumFrames
60	60	4	27	m	60	514	686
Frame#	Time	RHip			RKnee			RAnkle			RBigToe			RSmallToe			RHeel			LHip			LKnee			LAnkle			LBigToe			LSmallToe			LHeel			Neck			Head			Nose			RShoulder			RElbow			RWrist			RThumb			RIndex			RPinky			LShoulder			LElbow			LWrist			LThumb			LIndex			LPinky		
		X1	Y1	Z1	X2	Y2	Z2	X3	Y3	Z3	X4	Y4	Z4	X5	Y5	Z5	X6	Y6	Z6	X7	Y7	Z7	X8	Y8	Z8	X9	Y9	Z9	X10	Y10	Z10	X11	Y11	Z11	X12	Y12	Z12	X13	Y13	Z13	X14	Y14	Z14	X15	Y15	Z15	X16	Y16	Z16	X17	Y17	Z17	X18	Y18	Z18	X19	Y19	Z19	X20	Y20	Z20	X21	Y21	Z21	X22	Y22	Z22	X23	Y23	Z23	X24	Y24	Z24	X25	Y25	Z25	X26	Y26	Z26	X27	Y27	Z27
515	8.583333333333334	-82.48926996006348	3901.3484820014755	-718.530353471947	271.32544446348845	3990.511183422074	-678.4049028837902	629.9367869991449	4231.582923707788	-695.5092379850353	699.2460564447354	4100.010937098417	-641.4579454391844	715.7368534283515	4159.917144139019	-737.4233829799592	661.5632314032999	4286.897427899806	-696.2262005778496	-101.31717298612895	3987.8429162344487	-512.9395816617466	226.60922575457883	4056.6529375767523	-510.02702703206023	589.4746991231052	4326.581120998566	-539.9690812180708	655.6877762741013	4147.856399926851	-483.9121759751761	642.5093296014443	4261.310424346428	-438.70245459332574	628.6418725820178	4374.938202190086	-569.4600378762726	-701.0172961868258	3774.535057385691	-614.9055880914178	-941.3777720031411	3657.206237752253	-581.9838096547236	-802.5445788104225	3672.5784623383297	-548.6039508134737	-579.4726015061706	3710.597019026584	-731.7779652277785	-326.131629577588	3702.266881365408	-800.603889876127	-476.0867489092569	3541.075778526383	-665.0660416022512	-573.8499449815944	3462.647237121134	-609.5821887406281	-553.8161842875248	3427.6965403456466	-574.7961904372769	-536.7308162915631	3433.895033349065	-576.457504871595	-634.6741628323501	3898.5727899092603	-505.295964983425	-389.0527017621421	4039.3997712191585	-464.29305309595765	-121.07677996854497	3982.0629568153768	-370.63408260035243	-5.482446018579939	3965.9452629043476	-362.1372903684223	25.240994963477018	3964.798708695256	-353.2710108702838	19.60090918510236	4075.9638390051496	-367.5045995266105
516	8.6	-82.54671723784818	3901.7051855012255	-718.6940817512726	271.3105354474706	3990.6230367955764	-678.6653664119351	623.475864718833	4226.497906162409	-693.1786161212237	692.5285659467747	4094.8805904399387	-638.8768625427457	704.3790047218487	4122.9504258104935	-725.8928677789502	666.6946414170537	4311.967776779564	-713.4330533635974	-106.22094120355865	3986.142567926766	-513.4521419278532	225.74298583646691	4065.6256491629424	-501.7927777529201	577.2865778470454	4323.779830310284	-541.1867073577935	660.007233471853	4178.639154733963	-490.11622106149593	642.1895710311865	4261.302213933902	-438.593900128745	634.1741483349947	4378.83790302781	-571.5296545522875	-700.9500063381295	3774.540266471992	-614.8953372270423	-937.7203044875846	3640.736493414246	-568.7346488248869	-797.4199424597241	3673.9190912558624	-548.330525641772	-579.4456137660613	3710.738849204108	-731.8592037702117	-320.80176631561005	3704.0190334370163	-800.271073410853	-476.11012840618895	3541.0173360639706	-664.9423343402418	-572.5532167239012	3450.135675892174	-598.4384715929278	-553.6939716570017	3427.8390216105186	-574.8563773767257	-536.6745691645033	3433.9546109621633	-576.4187614490371	-634.6394468412893	3898.749275107194	-505.4065045294129	-388.9871033697545	4039.5149235071012	-464.33316640559354	-120.95279210374348	3982.2471265753848	-370.65980157597585	-5.509833033106054	3965.9855862656345	-362.03629875840676	25.297206256352514	3964.8908686753134	-353.23015193952847	19.64596190237375	4076.5593725178887	-367.60408256958146
517	8.616666666666667	-82.50599310331721	3901.565237638877	-718.6528873806403	265.0298560907607	3987.712020301929	-678.8801398533782	629.8374710830545	4231.136247094331	-695.3316956312069	692.7370635415471	4094.959591039345	-638.7636395142521	715.9338614614683	4159.800085119842	-737.3790627429752	661.4961884949219	4287.70856443662	-696.8201645508414	-95.58068278464079	3962.55357352964	-507.67384621636194	224.11419203565728	4035.2252624333596	-495.11573695842134	589.0128019677693	4326.184571126353	-539.4805642033456	660.1934631570174	4178.796730575687	-490.10896984656404	636.3434612205745	4256.758221423081	-436.34274625175505	628.0843942934414	4374.090413765506	-568.7857385700678	-700.9545753785808	3774.5097114521195	-614.8377500542445	-941.4398415385903	3656.838598554201	-581.766265435556	-802.0533637195892	3670.812138818686	-547.1593867985716	-579.3746679644687	3710.6001507182177	-731.7543482104452	-320.6788456832169	3704.106491961287	-800.3778844354623	-470.89346041947147	3542.9102268238867	-664.9087575852893	-573.7494611888752	3462.7873136024823	-609.6483162333916	-558.3718338265808	3426.7569777681733	-574.7542723704119	-538.0480565590011	3447.1203138666915	-588.1704051715352	-630.1205124687158	3901.7481986418625	-506.43533244843434	-388.49381880558246	4040.3397232293532	-470.5958515630772	-120.3758117270067	3953.892131263111	-364.7785190626284	-5.829783433131113	3965.7012359165283	-361.6643298335868	19.68250837293744	3986.2548375005795	-349.833058753611	19.69609530985647	4106.912179128787	-373.3912588500619
518	8.633333333333333	-82.4164671501623	3901.575628030724	-718.6422420127524	269.49689944566103	3971.005685697599	-668.9796869919793	627.982464855856	4260.576801513257	-702.0867855863736	687.6638125229665	4073.9986791554857	-623.3429228065337	704.8042965162633	4134.355107605707	-718.6495359111709	654.994957897322	4284.338035197724	-695.1423772952079	-106.07679809076537	3960.000777192565	-508.28373869732127	225.6223868095044	4065.705476908352	-501.7420345140365	576.6524040357947	4323.173386165799	-540.6580906035124	659.9662465471201	4178.643932105935	-490.01856144052	636.0558771931725	4256.649754878563	-436.2222648636324	628.1347801982662	4374.606319665349	-569.2319728245826	-701.0383787772332	3774.4784235171264	-614.8393977474473	-941.3939571796898	3656.9738575205447	-581.8580117393292	-802.0164470422645	3670.875159208819	-547.2190241537705	-579.5123579369653	3710.9477669931734	-731.9296870400194	-320.64635997884403	3704.0159839916014	-800.3592033237265	-466.4706940911587	3543.514075511587	-664.7311982820308	-575.8484005199565	3460.402202221239	-607.8880193550697	-555.846626442342	3426.077262595115	-573.9627639883338	-536.7089625796233	3433.640555966349	-576.4905514006116	-632.3997509258907	3879.400743727742	-491.34101070723545	-380.95168727309397	4014.17939660609	-459.750500976768	-120.34328753946654	3953.8545832253308	-364.85726694963927	-11.45756101827269	3962.4452871192616	-362.0951556280756	25.125441221252114	3963.818982367346	-352.7097231763195	19.291876464635518	4046.917731796401	-361.64772647050967
